<svg width="13" height="18" viewBox="0 0 13 18" fill="none" xmlns="http://www.w3.org/2000/svg">
<path d="M6.50107 0C2.91048 0 0 2.97463 0 6.64326C0 8.19811 0.514049 9.39815 1.69921 11.2125C2.8834 13.0269 6.50107 18 6.50107 18C6.50107 18 10.1188 13.0281 11.3008 11.2125C12.487 9.39914 13 8.19811 13 6.64326C13.0001 2.97463 10.0896 0 6.50107 0ZM6.50107 9.15497C5.14385 9.15497 4.04363 8.03051 4.04363 6.64337C4.04363 5.25824 5.14385 4.13177 6.50107 4.13177C7.8583 4.13177 8.95851 5.2582 8.95851 6.64337C8.95851 8.03051 7.8583 9.15497 6.50107 9.15497Z" fill="#EA4335"/>
</svg>
