<svg width="25" height="25" viewBox="0 0 25 25" fill="none" xmlns="http://www.w3.org/2000/svg">
<path d="M22.3632 12.4043L23.1415 13.0323L23.6438 12.4097L23.1467 11.7829L22.3632 12.4043ZM13.3675 11.3667C12.8152 11.3643 12.3656 11.8102 12.3633 12.3625C12.361 12.9147 12.8068 13.3643 13.3591 13.3666L13.3675 11.3667ZM19.1206 18.0155L23.1415 13.0323L21.585 11.7764L17.5641 16.7596L19.1206 18.0155ZM23.1467 11.7829L19.1677 6.76621L17.6007 8.00905L21.5798 13.0258L23.1467 11.7829ZM22.3674 11.4043L13.3675 11.3667L13.3591 13.3666L22.359 13.4043L22.3674 11.4043Z" fill="black"/>
<path d="M14.347 16.2392L14.3439 16.9826C14.3371 18.601 14.3337 19.4101 13.8574 19.9676C13.3811 20.5251 12.5824 20.6548 10.985 20.9142L9.3126 21.1857C6.06727 21.7126 4.44461 21.9761 3.38751 21.073C2.3304 20.1698 2.33729 18.5259 2.35106 15.2381L2.3755 9.4037C2.38927 6.1159 2.39616 4.472 3.46079 3.57776C4.52542 2.68351 6.14582 2.96056 9.38662 3.51466L11.0566 3.80019C12.6518 4.07293 13.4494 4.2093 13.921 4.77077C14.3927 5.33224 14.3893 6.1414 14.3825 7.75973L14.3802 8.30525" stroke="black" strokeWidth="2"/>
</svg>
